<svg width="128" height="128" viewBox="0 0 128 128" fill="none" xmlns="http://www.w3.org/2000/svg">
<rect width="128" height="128" rx="24" fill="black"/>
<path d="M48.272 39.84C50.5493 40.3253 52.3787 41.464 53.76 43.256C55.1413 45.0107 55.832 47.0267 55.832 49.304C55.832 52.5893 54.6747 55.2027 52.36 57.144C50.0827 59.048 46.8907 60 42.784 60H24.472L24.472 20.688L42.168 20.688C46.1627 20.688 49.28 21.6027 51.52 23.432C53.7973 25.2613 54.936 27.744 54.936 30.88C54.936 33.1947 54.32 35.1173 53.088 36.648C51.8933 38.1787 50.288 39.2427 48.272 39.84ZM34.048 36.592H40.32C41.888 36.592 43.0827 36.256 43.904 35.584C44.7627 34.8747 45.192 33.848 45.192 32.504C45.192 31.16 44.7627 30.1333 43.904 29.424C43.0827 28.7147 41.888 28.36 40.32 28.36L34.048 28.36V36.592ZM41.104 52.272C42.7093 52.272 43.9413 51.9173 44.8 51.208C45.696 50.4613 46.144 49.3973 46.144 48.016C46.144 46.6347 45.6773 45.552 44.744 44.768C43.848 43.984 42.5973 43.592 40.992 43.592H34.048L34.048 52.272H41.104ZM59.64 108H50.064L34.048 83.752V108H24.472L24.472 68.688H34.048L50.064 93.048L50.064 68.688H59.64L59.64 108Z" fill="white"/>
<path d="M86.5523 60.392C82.8563 60.392 79.4589 59.5333 76.3603 57.816C73.2989 56.0987 70.8536 53.7093 69.0243 50.648C67.2323 47.5493 66.3363 44.0773 66.3363 40.232C66.3363 36.3867 67.2323 32.9333 69.0243 29.872C70.8536 26.8107 73.2989 24.4213 76.3603 22.704C79.4589 20.9867 82.8563 20.128 86.5523 20.128C90.2483 20.128 93.6269 20.9867 96.6883 22.704C99.787 24.4213 102.214 26.8107 103.968 29.872C105.76 32.9333 106.656 36.3867 106.656 40.232C106.656 44.0773 105.76 47.5493 103.968 50.648C102.176 53.7093 99.7496 56.0987 96.6883 57.816C93.6269 59.5333 90.2483 60.392 86.5523 60.392ZM86.5523 51.656C89.6883 51.656 92.1896 50.6107 94.0563 48.52C95.9603 46.4293 96.9123 43.6667 96.9123 40.232C96.9123 36.76 95.9603 33.9973 94.0563 31.944C92.1896 29.8533 89.6883 28.808 86.5523 28.808C83.3789 28.808 80.8403 29.8347 78.9363 31.888C77.0696 33.9413 76.1363 36.7227 76.1363 40.232C76.1363 43.704 77.0696 46.4853 78.9363 48.576C80.8403 50.6293 83.3789 51.656 86.5523 51.656ZM104.085 108H94.5093L78.4933 83.752V108H68.9173V68.688H78.4933L94.5093 93.048L94.5093 68.688H104.085L104.085 108Z" fill="white"/>
</svg>
