<svg width="128" height="128" viewBox="0 0 128 128" fill="none" xmlns="http://www.w3.org/2000/svg">
<path fill-rule="evenodd" clip-rule="evenodd" d="M0 0H128V128H0V0ZM48.272 39.84C50.5493 40.3253 52.3787 41.464 53.76 43.256C55.1413 45.0107 55.832 47.0267 55.832 49.304C55.832 52.5893 54.6747 55.2027 52.36 57.144C50.0827 59.048 46.8907 60 42.784 60H24.472V20.688H42.168C46.1627 20.688 49.28 21.6027 51.52 23.432C53.7973 25.2613 54.936 27.744 54.936 30.88C54.936 33.1947 54.32 35.1173 53.088 36.648C51.8933 38.1787 50.288 39.2427 48.272 39.84ZM34.048 36.592H40.32C41.888 36.592 43.0827 36.256 43.904 35.584C44.7627 34.8747 45.192 33.848 45.192 32.504C45.192 31.16 44.7627 30.1333 43.904 29.424C43.0827 28.7147 41.888 28.36 40.32 28.36L34.048 28.36V36.592ZM41.104 52.272C42.7093 52.272 43.9413 51.9173 44.8 51.208C45.696 50.4613 46.144 49.3973 46.144 48.016C46.144 46.6347 45.6773 45.552 44.744 44.768C43.848 43.984 42.5973 43.592 40.992 43.592H34.048V52.272H41.104ZM59.64 108H50.064L34.048 83.752V108H24.472V68.688H34.048L50.064 93.048V68.688H59.64V108ZM76.3603 57.816C79.459 59.5333 82.8563 60.392 86.5523 60.392C90.2483 60.392 93.627 59.5333 96.6883 57.816C99.7496 56.0987 102.176 53.7093 103.968 50.648C105.76 47.5493 106.656 44.0773 106.656 40.232C106.656 36.3867 105.76 32.9333 103.968 29.872C102.214 26.8107 99.787 24.4213 96.6883 22.704C93.627 20.9867 90.2483 20.128 86.5523 20.128C82.8563 20.128 79.459 20.9867 76.3603 22.704C73.299 24.4213 70.8536 26.8107 69.0243 29.872C67.2323 32.9333 66.3363 36.3867 66.3363 40.232C66.3363 44.0773 67.2323 47.5493 69.0243 50.648C70.8536 53.7093 73.299 56.0987 76.3603 57.816ZM94.0563 48.52C92.1896 50.6107 89.6883 51.656 86.5523 51.656C83.379 51.656 80.8403 50.6293 78.9363 48.576C77.0696 46.4853 76.1363 43.704 76.1363 40.232C76.1363 36.7227 77.0696 33.9413 78.9363 31.888C80.8403 29.8347 83.379 28.808 86.5523 28.808C89.6883 28.808 92.1896 29.8533 94.0563 31.944C95.9603 33.9973 96.9123 36.76 96.9123 40.232C96.9123 43.6667 95.9603 46.4293 94.0563 48.52ZM94.5093 108H104.085L104.085 68.688H94.5093V93.048L78.4933 68.688H68.9173V108H78.4933V83.752L94.5093 108Z" fill="black"/>
</svg>
